<svg version="1.1" viewBox="0.0 0.0 960.0 720.0" fill="none" stroke="none" stroke-linecap="square" stroke-miterlimit="10" xmlns:xlink="http://www.w3.org/1999/xlink" xmlns="http://www.w3.org/2000/svg"><clipPath id="p.0"><path d="m0 0l960.0 0l0 720.0l-960.0 0l0 -720.0z" clip-rule="nonzero"/></clipPath><g clip-path="url(#p.0)"><path fill="#000000" fill-opacity="0.0" d="m0 0l960.0 0l0 720.0l-960.0 0z" fill-rule="evenodd"/><path fill="#2843c9" d="m255.06561 288.58005l0 0c0 -6.5565796 0.5983734 -13.099487 1.7876892 -19.547333l29.647858 5.468567l0 0c-0.8565674 4.643982 -1.2875366 9.356445 -1.2875366 14.078766z" fill-rule="evenodd"/><path fill="#2843c9" d="m593.32666 219.5284l0 0c36.43457 7.0345764 64.46539 36.292587 69.93335 72.99495c5.4679565 36.702362 -12.8172 72.860535 -45.61902 90.20999l-14.139465 -26.73294l0 0c21.460938 -11.351044 33.424133 -35.007874 29.84668 -59.020782c-3.5774536 -24.012878 -21.916931 -43.155228 -45.754578 -47.75766z" fill-rule="evenodd"/><path fill="#2843c9" d="m367.22903 396.254l0 0c-32.757446 1.3384705 -64.34277 -12.307831 -85.82001 -37.078217c-21.477203 -24.770386 -30.51033 -57.970642 -24.543762 -90.20792l29.669952 5.4914246l0 0c-4.295929 23.210846 2.2079163 47.11502 17.671509 64.94968c15.463623 17.834686 38.205048 27.660034 61.790405 26.69632z" fill-rule="evenodd"/><path fill="#2843c9" d="m363.23892 366.11316l246.01572 -10.740143l1.322876 30.141724l-246.01578 10.740173z" fill-rule="evenodd"/><path fill="#2843c9" d="m627.00336 377.23276l0 0c-5.256836 3.379181 -10.860718 6.1851807 -16.715637 8.369873l-9.786987 -26.228699c3.9805908 -1.4853516 7.7905884 -3.393097 11.364563 -5.6905212z" fill-rule="evenodd"/><path fill="#4d4d4d" d="m363.49274 364.10547l0 0c-0.22323608 -4.6879883 3.3962097 -8.668182 8.084259 -8.889984l141.44827 -6.6927795c2.2512817 -0.106536865 4.452942 0.6856079 6.1206055 2.202179c1.6677246 1.5165405 2.664856 3.6332703 2.7720337 5.8845215l1.6168213 33.952423c0.22320557 4.6879883 -3.3962402 8.668182 -8.08429 8.890015l-141.44824 6.6927795c-4.6880493 0.22180176 -8.669434 -3.3987427 -8.89267 -8.086731z" fill-rule="evenodd"/></g></svg>