<svg version="1.1" viewBox="0.0 0.0 960.0 720.0" fill="none" stroke="none" stroke-linecap="square" stroke-miterlimit="10" xmlns:xlink="http://www.w3.org/1999/xlink" xmlns="http://www.w3.org/2000/svg"><clipPath id="p.0"><path d="m0 0l960.0 0l0 720.0l-960.0 0l0 -720.0z" clip-rule="nonzero"/></clipPath><g clip-path="url(#p.0)"><path fill="#000000" fill-opacity="0.0" d="m0 0l960.0 0l0 720.0l-960.0 0z" fill-rule="evenodd"/><path fill="#2843c9" d="m255.06561 288.58005l0 0c0 -32.014008 14.233978 -62.370712 38.845184 -82.84477c24.611176 -20.47406 57.05139 -28.945648 88.53079 -23.119339l-5.4914246 29.669952l0 0c-22.665161 -4.1949463 -46.022095 1.904602 -63.742157 16.64592c-17.720062 14.741318 -27.968536 36.59816 -27.968536 59.64824z" fill-rule="evenodd"/><path fill="#2843c9" d="m380.07123 182.20944l214.48816 37.5748l-5.1968384 29.732285l-214.48819 -37.5748z" fill-rule="evenodd"/><path fill="#2843c9" d="m593.32666 219.5284l0 0c36.108337 6.971588 63.999878 35.784027 69.79523 72.09972c5.795349 36.315674 -11.743225 72.37799 -43.888306 90.24164l-14.798035 -26.62854l0 0c20.949585 -11.64212 32.37982 -35.144653 28.602905 -58.812286c-3.7769775 -23.667664 -21.954407 -42.445312 -45.48694 -46.98883z" fill-rule="evenodd"/></g></svg>