<?xml version="1.0" encoding="utf-8"?>
<!-- Generator: Adobe Illustrator 27.3.1, SVG Export Plug-In . SVG Version: 6.00 Build 0)  -->
<svg version="1.1" id="Layer_1" xmlns="http://www.w3.org/2000/svg" xmlns:xlink="http://www.w3.org/1999/xlink" x="0px" y="0px"
	 viewBox="0 0 500 500" style="enable-background:new 0 0 500 500;" xml:space="preserve">
<style type="text/css">
	.st0{fill:#1E44D1;}
</style>
<g>
	<path class="st0" d="M159.49,245.31c-3.43-2.04-6.9-1.24-10.57-1.35c-2.02,0.11-5.16,0.08-7.3,0.04c-0.92-0.02-2.15,0.02-3.08,0
		c-2.46-0.03-3.59-0.03-6.58,0.04c-7.46,0.18-3.78,10.8-4.58,16.15c-0.1,0.66-0.14,1.33-0.02,1.99c1.06,6.06,7.87,4.28,12.95,4.55
		c3.31,0.04,5.58-0.07,7.66-0.24c1.18-0.1,2.36-0.12,3.54-0.09c3.79,0.09,8.11-0.21,10.78-3
		C167.39,258.38,166.51,247.98,159.49,245.31z"/>
	<path class="st0" d="M460.02,182.27c-18.5-22.07-51.59-22.82-80.36-21.76c-48.54,1.79-97.07,3.57-145.61,5.36
		c-34.92,1.28-70.59,2.48-104.04-7.6c-21.18-6.38-43.05-17.3-64.32-11.2c-31.26,8.96-41.54,49.92-33.48,81.42
		c12.96,50.69,58.78,82.18,104.31,101.67c53.32,22.83,109.13,59.44,169.27,38.94c27.76-9.46,50.14-29.82,74.17-46.64
		c25.09-17.57,53.16-32.11,72.54-55.84C471.87,242.9,479.7,205.75,460.02,182.27z M174.85,264.72c-0.56,0.86-1.09,1.73-1.6,2.62
		c-1.56,2.7-5.08,6.25-7.25,7.15c-4.29,2.79-10.22,2.56-15.16,2.68c-3.93,0.09-6.52-0.32-9.56,0.13
		c-7.49-0.31-16.63,2.08-23.32-2.04c-2.58-1.89-0.98-6.91-1.53-9.69c-0.2-12.21-0.36-24.82-0.25-37.07
		c-0.52-14.06-0.34-16.39,14.4-16.31c3.13,0.31,6.4,0.37,9.59,0.28c1.76-0.05,3.53-0.03,5.29,0.09c3.45,0.24,7.29-0.23,10.73,0.4
		c6.11,1.72,11.64,7.49,11.09,14.14c-1.99,15.25,7.05,10.14,9.05,24.34C177.13,255.54,177.27,261.01,174.85,264.72z M192.25,276.66
		c-1.7-0.54-2.97-1.95-3.43-3.68c-0.54-2.03-0.18-3.64,1.36-5.07c0.82-0.76,1.87-1.22,2.98-1.33c5.03-0.51,16.58,2.11,16.7-4.61
		c-0.03-3.36-0.27-8.5-0.26-11.87c0-0.13,0.01-0.26,0.02-0.39c0.28-3.98,0.18-15.27-0.12-17.27c-0.01-0.08-0.02-0.15-0.03-0.23
		c-0.08-0.79-0.03-1.91-0.07-3.01c-0.08-2.31-1.68-5.26-3.92-5.8c-0.59-0.14-1.2-0.23-1.82-0.3c-2.53-0.26-9.38-0.05-11.67-0.81
		c-1.19-0.39-2.2-1.23-2.8-2.33c-1.48-2.74-0.13-5.1,2.71-6.68c0.62-0.34,1.3-0.55,1.99-0.63c4.9-0.57,13.73-0.3,19.05-0.46
		c0.48-0.01,0.81-0.02,1.27,0c6.13,0.36,17.32-0.86,23.32,0.42c2.21,0.47,3.96,2.27,4.14,4.52c0.18,2.14-0.88,4-3.15,5.28
		c-0.74,0.42-1.58,0.62-2.43,0.62c-1.59-0.01-7.85-0.23-9.57-0.18c-2.18,0.06-4.15,0.56-5.1,2.47c-0.21,0.42-0.33,0.87-0.41,1.32
		c-0.6,3.73-0.44,8.77-0.2,12.5c0.01,0.21,0.01,0.41,0,0.61c-0.18,3.17-0.12,15.13-0.11,16.82c0,0.14,0.01,0.27,0.02,0.4
		c0.31,3.59,0.13,8.65,4.82,8.97c1.69,0.12,9.13,0.21,11.39,0.51c1.24,0.16,2.39,0.76,3.22,1.7c2.42,2.73,2.85,6.04-0.61,7.98
		c-0.77,0.43-1.65,0.64-2.53,0.63c-6.43-0.01-17.43,0.73-23.84,0.19c-0.41-0.03-0.83-0.02-1.24,0.04c-2.83,0.4-5.83,0.29-8.72,0.07
		c-0.3-0.02-0.59-0.02-0.89,0.01C200.59,277.24,194.16,277.27,192.25,276.66z M218.98,313.06c-0.2,0.29-0.49,0.57-0.81,0.83
		c-0.95,0.78-2.04,1.4-3.2,1.8c-13.1,4.51-19.89-13.66-8.65-19.32c2.23-1.12,4.79-1.49,7.24-1.03c0.61,0.11,1.19,0.29,1.73,0.56
		c1.81,0.62,5.36,3.18,3.34,4.75c-0.52,0.4-1.21,0.47-1.83,0.25c-1.97-0.72-3.66-2.57-5.98-2.21c-4.12,0.44-7.57,4.83-6.26,8.97
		c1.27,4.66,7.35,6.6,11.11,3.52C217.31,309.55,220.12,310.7,218.98,313.06z M244,315.29c-0.65,1.14-2.32,1.14-3.06,0.06
		c-0.48-0.7-0.84-1.52-1.4-1.98c-1.71-0.47-3.66-0.09-5.41-0.17c-1.27,0.1-2.94-0.36-4.01,0.54c-0.14,0.12-0.24,0.28-0.31,0.45
		c-0.97,2.62-4.97,3-3.83-0.53c0.9-3.34,3.01-6.52,4.28-9.84c0.1-0.27,0.21-0.53,0.36-0.77c1.29-2.04,1.8-5.97,3.87-7.28
		c0.77-0.49,1.87-0.25,2.42,0.47c1.49,1.97,1.83,4.69,2.89,6.9c1.59,3.61,3.02,7.27,4.42,10.94
		C244.28,314.54,244.19,314.94,244,315.29z M268.33,298.66c-1.31,0.35-2.81,0.09-4.14,0.16c-0.45,0.03-0.9,0.02-1.35,0.01
		c-2.36-0.06-4.77-0.08-7.15,0.16c-1.12,0.47-0.71,2.07-0.77,3c-0.26,3.49,5.96,1.39,8.2,2.02c1.97-0.09,3.15,2.35,1.2,3.35
		c-2.63,1.1-6.53-0.56-8.87,0.9c-0.22,0.14-0.38,0.37-0.42,0.63c-0.27,1.76-0.1,3.66-0.28,5.37c0.13,1.97-2.4,3-3.3,0.99
		c-0.49-2.59-0.17-5.3-0.32-7.93c-0.03-0.52-0.04-1.04-0.01-1.55c0.19-3.16-0.29-6.31,0.37-9.44c0.76-2.03,3.74-1.03,5.59-1.16
		c0.32-0.02,0.64-0.02,0.97,0c1.88,0.09,3.82-0.14,5.64-0.03c0.59,0.03,1.18,0.03,1.77-0.01c1.84-0.12,4.23,0.11,4.27,1.8
		C269.75,297.75,269.13,298.45,268.33,298.66z M287.77,316.28c-2.08-0.01-4.13,0.09-6.18,0.09c-2.31-0.15-6.71,0.86-6.31-2.75
		c-0.1-2.29-0.11-4.58-0.09-6.87c0-0.34,0.03-0.68,0.07-1.01c0.49-4.99-2.3-11.48,4.44-10.95c0.99,0.08,1.99,0.14,2.98,0.11
		c3.01-0.07,6.05-0.04,9.06,0.04c0.47,0.01,0.94,0.15,1.3,0.45c0.76,0.62,0.86,1.6,0.33,2.37c-0.38,0.56-1.04,0.85-1.72,0.87
		c-1.74,0.05-3.53-0.09-5.23,0.06c-2.17-0.08-4.75-0.28-6.84,0.4c-0.22,0.07-0.39,0.24-0.46,0.46c-0.53,1.5-0.44,4.11,1.51,4.16
		c2.19,0.18,4.52-0.14,6.74,0.2c1.93,0.29,2.14,3.03,0.26,3.53c-0.02,0-0.03,0.01-0.05,0.01c-2.44,0.46-6.16-0.66-8.21,0.59
		c-0.21,0.12-0.34,0.34-0.36,0.58c-0.17,1.62-0.29,3.87,1.76,4.03c3.98,0.36,8.14-0.62,12.02,0.38c0.54,0.14,0.96,0.61,0.97,1.17
		C293.8,316.39,290.48,316.29,287.77,316.28z M315.21,217.76c-0.7,5.22-4.34,10.94-6.68,15.87c-0.43,0.9-0.78,1.84-1.1,2.79
		c-1.06,3.18-3.03,6.46-4.36,9.47c-0.05,0.11-0.09,0.22-0.13,0.33c-1.59,4.34-3.43,8.75-5.55,12.84c-0.23,0.44-0.57,1.17-0.75,1.63
		c-0.99,2.46-1.92,4.77-3.19,7.26c-0.56,1.1-1.08,2.22-1.57,3.36c-2.58,6-9.2,9.23-12.42,1.07c-0.47-1.21-1.46-3.38-2.3-4.67
		c-2.4-6.23-4.91-12.47-7.25-18.72c-1.99-3.22-3.31-7.79-4.61-11.13c-2.28-5.63-4.89-11.6-6.83-17.55c-0.2-0.61-0.78-2.21-0.75-2.86
		l0-0.08c0.19-4.44,5.44-6.82,8.8-3.92c0.28,0.24,0.55,0.51,0.82,0.81c0.48,0.53,0.84,1.15,1.08,1.82c0.37,1.03,1.34,3.33,1.89,4.37
		c0.86,1.6,1.62,3.26,2.19,4.98c0.51,1.51,1.05,3.03,1.65,4.22l5.29,13.09c6.65,16.82,8.87,10.57,13.5-2.17
		c0.08-0.22,0.18-0.44,0.29-0.66c4.07-7.73,7.37-16.67,11.49-24.48c0.31-0.6,0.73-1.14,1.25-1.56c2.76-2.26,6.83-2.38,8.59,0.55
		C315.18,215.41,315.36,216.6,315.21,217.76z M381.19,223.92c-0.02,0.03-0.04,0.05-0.06,0.08c-1.91,2.93-4.39,5.93-6.05,8.99
		c-0.03,0.05-0.06,0.1-0.09,0.15c-3.96,5.22-7.33,11.08-11.22,16.47c-0.05,0.06-0.09,0.13-0.12,0.2
		c-2.39,5.03-0.97,15.85-1.35,21.29c-0.27,2.85-1.48,4.73-3.3,5.63c-2.97,1.47-6.56-0.28-7.42-3.48c-1.5-5.6-0.72-12.86-1-18.2
		c-0.01-0.11,0.03-2.03,0.04-2.23c0.12-2.03-3.7-6.84-4.38-8.42c-2.42-4.35-4.93-8.8-7.81-12.8c-0.06-0.08-0.09-0.18-0.14-0.26
		c-1.9-3.33-3.23-4.89-5.1-8.45c-0.08-0.15-0.81-1.55-0.99-1.89c-1.43-2.72-2.33-4.58-1.06-6.67c0.92-1.52,2.7-2.34,4.46-2.03
		c4.81,0.84,7.64,6.4,9.59,10.64c0.02,0.05,0.05,0.09,0.07,0.14c2.25,3.68,5.23,7.33,7.2,11.22c0.01,0.03,0.03,0.06,0.05,0.09
		c4.57,7.44,6.6,3.41,9.57-1.22c0.51-0.8,1.11-1.54,1.74-2.25c4.54-5.07,10.25-19.12,16.47-18.73c0.06,0,0.13,0.01,0.19,0.03
		C388.07,213.68,384.52,219.74,381.19,223.92z"/>
	<path class="st0" d="M129.42,231.55c2.31,0.98,15.07,1.36,20.9,0.81c1.61-0.15,3.15-0.78,4.33-1.88c2.42-2.26,1.48-4.55-1.66-6.23
		c-1.05-0.56-2.23-0.86-3.42-0.88c-5.94-0.09-12.33,0.05-18.24,0.03C126.98,223.81,125.91,229.13,129.42,231.55z"/>
	<path class="st0" d="M234.84,303.24c-0.21,0.14-0.37,0.35-0.46,0.59c-0.8,2.04-3.69,5.47,0.09,5.71c2.06,0.21,4.36-0.32,2.83-2.83
		C236.79,305.78,236.14,302.41,234.84,303.24z"/>
</g>
</svg>
