<?xml version="1.0" encoding="utf-8"?>
<!-- Generator: Adobe Illustrator 27.3.1, SVG Export Plug-In . SVG Version: 6.00 Build 0)  -->
<svg version="1.1" id="Layer_1" xmlns="http://www.w3.org/2000/svg" xmlns:xlink="http://www.w3.org/1999/xlink" x="0px" y="0px"
	 viewBox="0 0 93.1 93.1" style="enable-background:new 0 0 93.1 93.1;" xml:space="preserve">
<style type="text/css">
	.st0{fill:#1E44D1;}
</style>
<path class="st0" d="M75.24,38.15c0.73-0.4,0.43-0.94,0.41-1.41c-0.02-0.44,0.25-0.83,0.38-1.23c-0.03-0.58-0.09-1.16-0.14-1.74
	c-0.07-0.23-0.14-0.45-0.21-0.68c-0.32-1.01-0.25-2.09-0.23-3.15c-0.01-0.08-0.02-0.16-0.03-0.24c-0.03-0.22-0.06-0.45-0.09-0.67
	c-0.16-0.64-0.42-1.27-0.29-1.99c-0.13-0.52-0.32-1.03-0.65-1.52c-0.42-0.65,0-2.12-0.31-3.39c-0.87-3.42-1.74-6.87-2.95-10.2
	c-0.43-1.17-0.9-2.33-1.4-3.46c-0.23-0.52-0.57-1.3-0.62-1.33C69,6.95,68.95,6.89,68.87,6.8l-0.29,0.09
	c-0.03,0.01-0.13,0.04-0.2,0.05l-0.11,0.03l-0.35,0.07c-3.31,0.63-6.83,1.08-9.89,2.31c-2.64,1.06-5.23,1.3-7.73,2.36
	c-2.64,1.12-5.31,2.36-7.93,3.36c-0.64,0.25-1.29,0.51-1.92,0.78c-0.01,0.06-0.02,0.12-0.01,0.2c0,0.07-0.24,0.06-0.38,0.03
	c-0.05-0.01-0.09,0-0.14-0.01c-0.37,0.16-0.72,0.34-1.08,0.52c-0.04,0.07-0.09,0.14-0.12,0.21c-0.17,0.48-0.48,0.64-0.78,0.86
	c-0.84,0.59-1.64,1.22-2.49,1.79c-0.64,0.43-1.43,0.65-2.05,1.11c-0.62,0.44-1.06,1.16-1.77,1.43c-0.17,0.23-0.31,0.47-0.4,0.75
	c-0.03,0.1-0.53,0.37-0.81,0.49c-0.49,0.19-0.96,0.48-1.38,0.81c-0.01,0.11,0,0.25,0.07,0.43c0.03,0.07-0.08,0.18-0.17,0.19
	c-1.48,0.23-1.4,1.89-2.29,2.66c-0.29,0.23-0.54,0.49-0.77,0.76c-0.1,0.12-0.2,0.25-0.3,0.38c-0.11,0.15-0.22,0.3-0.33,0.44
	c-0.31,0.44-0.59,0.9-0.9,1.33c-0.2,0.26-0.56,0.45-0.29,0.99c0.09,0.19-0.08,0.49-0.28,0.56c-1.11,0.37-1.23,1.43-1.79,2.18
	c-0.14,0.18-0.25,0.37-0.36,0.56c-0.03,0.06-0.07,0.13-0.1,0.19c-0.18,0.35-0.34,0.72-0.55,1.06c-0.39,0.81-0.8,1.61-1.19,2.43
	c0.01,0.02,0.02,0.04,0.03,0.07c0.17,0.34-0.29,0.71-0.36,1.11c-0.06,0.32,0.11,0.71,0.01,1.01c-0.09,0.25-0.41,0.42-0.62,0.64
	c-0.06,0.07-0.09,0.16-0.08,0.25c0.15,1.12-0.4,2.04-0.82,3c-0.16,0.94-0.33,1.86-0.55,2.72c-0.06,0.52-0.13,1.04-0.21,1.56
	c0.03,0.03,0.05,0.06,0.09,0.09c0.04,0.03-0.04,0.14-0.13,0.23c-0.08,0.51-0.15,1.02-0.22,1.53c-0.02,0.14-0.04,0.27-0.06,0.4
	c0.06,0.28,0.02,0.53-0.01,0.79c-0.12,1.02-0.17,2.04-0.3,3.06c-0.01,0.11-0.04,0.22-0.07,0.34c-0.01,0.69,0.07,1.36,0.51,1.89
	c0.07,0.09,0.08,0.52,0.03,0.72c-0.76,3.37,0.85,6.5,1.23,9.81c0.39,3.45,1.39,6.9,2.43,10.26c0.27,0.9,0.38,1.92,1.14,2.58
	c0.27,0.23,0.59,1.16,0.63,1.65c0,0.04,0.01,0.08,0.01,0.12c0.93,0.99,1.09,2.47,2.04,3.45c0.33,0.34,0.64,0.69,0.95,1.04l2-0.39
	c1.5-0.3,3-0.57,4.57-0.68c1.32-0.08,3.09-0.43,4.4-1.51c0.6-0.49,2.11-0.64,3.15-1.06c0.85-0.35,1.59-0.92,2.43-1.24
	c0.71-0.28,1.54-0.28,2.3-0.47c0.23-0.05,0.49-0.16,0.69-0.28c1.91-1.18,3.93-2.02,5.94-2.91c2.02-0.87,4.03-1.8,5.82-3.09
	c3.61-2.57,7.05-5.36,10-8.58c0.53-0.59,1.05-1.19,1.58-1.76c0.16-0.25,0.31-0.51,0.42-0.78c0.38-0.88,1.27-1.55,1.03-2.72
	c-0.04-0.21,0.14-0.52,0.35-0.53c0.62-0.05,0.6-0.47,0.73-0.78c0.54-1.15,1.23-2.28,1.42-3.55c0.23-1.19,1.75-1.99,1.19-3.41
	c-0.03-0.08,0-0.24,0.08-0.25c0.83-0.14,0.6-0.72,0.71-1.13c0.18-0.73,0.38-1.44,0.21-2.25c-0.21-0.81,0.28-1.61,0.35-2.43
	c0.1-0.78-0.11-1.6-0.06-2.38c0.07-1.04,0.22-2.08,0.31-3.13c0.04-0.38,0.03-0.74,0.37-1.14c0.34-0.41,0.45-1.03-0.04-1.55
	C75.31,38.39,75.18,38.18,75.24,38.15z M58.28,30.49c-0.37,0.91-0.59,1.86-0.88,2.8c-0.26,0.83-0.56,1.64-0.75,2.49
	c-0.07,0.32-0.45,0.54,0.02,1.04c0.24,0.25-0.54,0.33-0.61,0.63c-0.17,0.8-0.52,1.54-0.71,2.33c-0.19,0.77-0.21,1.6-0.4,2.38
	c-0.18,0.77-0.77,1.43-0.71,2.27c0.06,0.73-0.68,1.1-0.78,1.74c-0.12,0.68-0.32,1.37-0.82,1.88c-0.37,0.37-0.76,0.72-0.86,1.2
	c-0.06,0.3,0.14,0.71-0.02,1c-0.16,0.27-0.58,0.45-0.06,1c0.04,0.05-0.13,0.12-0.25,0.14c-0.55,0.1-0.7,0.47-0.57,0.86
	c0.14,0.38-0.01,0.58-0.12,0.81c-0.31,0.63-0.6,1.28-1.04,1.84c-0.09,0.11-0.19,0.22-0.3,0.32c0.39,0.05,0.75-0.21,1.13-0.21
	c0.09,0,0.17,0,0.25-0.01c-0.5,0.2-0.93,0.49-1.31,0.83c-1.19,0.45-2.05,1.36-2.55,2.46c-0.56,0.54-1.09,1.11-1.56,1.77
	c-0.03-0.07-0.06-0.14-0.08-0.24c-0.16,0.27-0.22,0.62-0.34,0.93c-0.04,0.09-0.09,0.17-0.13,0.26c-0.06,0.09-0.13,0.18-0.23,0.25
	c-0.72,0.48-1.2,1.19-1.76,1.82c-0.15,0.17-0.46,0.2-0.24,0.71c0.08,0.18-0.07,0.37-0.24,0.36c-0.95-0.08-1.12,0.67-1.67,1.02
	c-0.62,0.39-0.92,1.15-1.84,1.2c-0.39,0.02-0.78,0.2-0.63,0.94c0.07,0.34-0.4,0.34-0.55,0.56c-0.13,0.18-0.09,0.55-0.25,0.7
	c-0.13,0.12-0.44,0.04-0.66,0.06c-0.07,0-0.12,0.04-0.14,0.11c-0.35,1.23-1.79,1.09-2.48,1.9c-0.7,0.81-1.61,1.36-2.52,1.91
	c-0.5,0.3-1.1,0.49-2.17-0.32c-0.48-0.37-0.85-0.87-0.87-1.31c-0.02-0.32,0-0.65,0.12-0.83c0.2-0.28,0.36-0.6,0.55-0.87
	c0.39-0.57,0.55-1.43,1.28-1.57c0.23-0.05,0.22-0.46,0.7-0.11c0.07,0.05,0.16,0.03,0.17-0.03c0.1-0.83,0.61-1.16,1.14-1.47
	c-0.12-0.38-0.45-0.84-0.06-1.03c0.13-0.07-0.14-0.3,0.42-0.18c0.08,0.02,0.13-0.01,0.1-0.04c-0.67-0.75,0.04-0.99,0.15-1.45
	c0.08-0.4-0.47-0.99-0.05-1.26c-0.6-0.43-0.4-0.63-0.13-0.77c0.94-0.5,0.71-1.4,0.98-2.1c0.32-0.72,0.37-1.49,0.57-2.22
	c0.04-0.13-0.34-0.31-0.01-0.4c0.31-0.09,0.11-0.31,0.14-0.47c0.02-0.15-0.1-0.33,0.1-0.44c0.83-0.48,0.43-1.14,0.58-1.72
	c0.09-0.58,0.22-1.17,0.02-1.75c-0.12-0.36-0.52-0.68-0.38-1.04c0.06-0.16-0.35-0.28,0.3-0.48c0.18-0.06-0.34-0.15-0.37-0.24
	c-0.08-0.23-0.07-0.47-0.09-0.71c-0.05-0.33-0.07-0.66-0.19-0.97c-0.08-0.19-0.38-0.33-0.49-0.51c-0.12-0.18-0.17-0.38-0.16-0.6
	c0.01-0.27,0.18-0.59,0.17-0.87c-0.03-0.29-0.41-0.46-0.21-0.82c0.39-0.67-0.08-1.05-0.22-1.54c-0.13-0.49-0.29-0.99-0.66-1.38
	c-0.2-0.22,0.18-0.72,0.04-0.98c-0.06-0.11,1.31-1.08,1.83-1.3c0.1-0.04,0.21-0.08,0.26-0.07c0.6,0.02,1.46-0.09,1.58,0.26
	c0.17,0.52,0.48,0.98,0.69,1.49c0.19,0.45,0.35,0.9,0.58,1.33c0.08,0.16-0.13,0.44,0.5,0.41c0.32-0.01-0.3,0.4-0.22,0.54
	c0.23,0.4,0.27,0.87,0.45,1.3c0.18,0.41,0.54,0.78,0.71,1.21c0.15,0.43-0.09,0.94,0.34,1.31c0.39,0.33-0.14,0.74,0.03,1.08
	c0.18,0.36,0.31,0.76,0.08,1.14c-0.18,0.28-0.42,0.56-0.29,0.82c0.08,0.16,0.45,0.31,0.43,0.5c-0.02,0.17-0.31,0.36,0.39,0.52
	c0.06,0.01-0.07,0.09-0.17,0.13c-0.47,0.18-0.44,0.4-0.14,0.56c0.3,0.16,0.26,0.29,0.27,0.44c0.03,0.39,0.03,0.78-0.09,1.15
	c-0.08,0.28-0.38,0.53-0.47,0.81c-0.09,0.28,0.17,0.64-0.21,0.85c-0.38,0.21-0.41,0.47-0.45,0.72c-0.02,0.15-0.37,0.26,0.31,0.51
	c0.06,0.02,0.04,0.08-0.02,0.09c-1,0.23,0.11,0.88-0.21,1.25c-0.18,0.22-0.24,0.46-0.28,0.71c0.03-0.03,0.06-0.06,0.09-0.09
	c0.55-0.51,1.08-1.05,1.59-1.61c0.48-0.58,0.95-1.16,1.44-1.72c0.18-0.19-0.01-0.61,0.41-0.66c0.4-0.05,0.43-0.48,0.62-0.74
	c0.18-0.24,0.24-0.58,0.55-0.7c0.66-0.25,1.01-0.73,1.33-1.23l0.87-1.55c0.64-0.99,1.28-2,1.61-3.16c0.22-0.7,0.16-1.5,0.57-2.12
	c0.18-0.26-0.05-0.71,0.69-0.74c0.21-0.01-0.15-0.47-0.09-0.66c0.15-0.47,0.34-0.95,0.53-1.41c0.24-0.66,0.54-1.29,0.72-1.98
	c0.1-0.42-0.02-0.92,0.05-1.34c0.08-0.45,0.23-0.88,0.44-1.28c0.27-0.51,0.66-0.99,0.91-1.51c0.25-0.55,0.15-1.23,0.62-1.68
	c0.87-0.84,0.91-1.95,1.29-2.95c0.38-0.99,0.74-2,0.92-3.05c0.1-0.6,0.8-0.96,0.97-1.52c0.08-0.26,1.77-0.13,2.28,0.14
	c0.1,0.05,0.19,0.13,0.22,0.18C57.9,29.13,58.52,29.87,58.28,30.49z"/>
</svg>
