<?xml version="1.0" encoding="utf-8"?>
<!-- Generator: Adobe Illustrator 27.3.1, SVG Export Plug-In . SVG Version: 6.00 Build 0)  -->
<svg version="1.1" id="Layer_1" xmlns="http://www.w3.org/2000/svg" xmlns:xlink="http://www.w3.org/1999/xlink" x="0px" y="0px"
	 viewBox="0 0 133.37 133.37" style="enable-background:new 0 0 133.37 133.37;" xml:space="preserve">
<style type="text/css">
	.st0{fill:#1E44D1;}
</style>
<path class="st0" d="M104.43,60.05c-5.81-1.69-12.57-1.43-16.41-0.4c-4.47,1.19-9.26,3.44-13.41,1.1c-3.72-2.09-3.77-5.7-4.57-9.8
	c-0.79-4.08-2.7-7.41-5.3-10.33c-4.83-5.41-11.63-7.84-18.13-6.55c-6.54,1.3-15.08,3.79-19.64,8.37c-0.91,0.92-1.81,1.95-2.24,3.3
	c-0.97,3.09,0.89,6.37,2.81,8.72c3.12,3.83,7.12,8.89,3.11,13.94c-1.24,1.56-2.9,2.51-4.65,2.93c-9.2,2.22-9.87,15.66-5.67,23.98
	c1.15,2.28,2.74,4.5,4.91,5.09c1.4,0.38,2.86,0.03,4.25-0.41c7.08-2.28,14.02-7.17,21.25-5.68c2.48,0.51,4.85,1.76,7.36,1.87
	c3.35,0.14,6.54-1.79,9.88-2.12c3.99-0.38,7.92,1.54,11.92,1.48c3.14-0.05,6.16-1.32,9.12-2.58c4.69-2.01,9.36-4.06,14.02-6.15
	c4.98-2.23,10.62-5.41,11.78-11.66C116.42,66.42,111.04,61.97,104.43,60.05z"/>
</svg>
