<?xml version="1.0" encoding="utf-8"?>
<!-- Generator: Adobe Illustrator 27.3.1, SVG Export Plug-In . SVG Version: 6.00 Build 0)  -->
<svg version="1.1" id="Layer_1" xmlns="http://www.w3.org/2000/svg" xmlns:xlink="http://www.w3.org/1999/xlink" x="0px" y="0px"
	 viewBox="0 0 133.37 133.37" style="enable-background:new 0 0 133.37 133.37;" xml:space="preserve">
<style type="text/css">
	.st0{fill:#1A2B5B;}
</style>
<path class="st0" d="M100.29,56.5c-7.02-18.75-33.13-36.76-49.1-31.79c-9.52,2.97-16.56,16.47-18.88,25.36
	c-3.15,12.07-0.21,24.95,3.51,36.54c2.85,8.89,6.94,24.04,19.26,22.69c5.29-0.58,9.47-4.99,11.6-9.87
	c2.13-4.88,2.65-10.27,3.66-15.5c0.6-3.08,1.78-6.6,4.76-7.6c5.69-1.92,10.22,7.16,16.15,6.28c1.57-0.24,2.95-1.18,4.13-2.25
	C102.73,73.62,103.47,64.98,100.29,56.5z"/>
</svg>
