<?xml version="1.0" encoding="utf-8"?>
<!-- Generator: Adobe Illustrator 27.3.1, SVG Export Plug-In . SVG Version: 6.00 Build 0)  -->
<svg version="1.1" id="Layer_1" xmlns="http://www.w3.org/2000/svg" xmlns:xlink="http://www.w3.org/1999/xlink" x="0px" y="0px"
	 viewBox="0 0 133.37 133.37" style="enable-background:new 0 0 133.37 133.37;" xml:space="preserve">
<style type="text/css">
	.st0{fill:#FF7155;}
</style>
<path class="st0" d="M103.27,104.42c7.52-2.91,14.26-9.21,16.68-17.61c2.42-8.41-0.38-18.76-7.34-23.05
	c-10.62-6.55-25.38,2.41-35.54-4.97c-2.95-2.14-5.11-5.45-8.16-7.41c-5.98-3.84-13.5-1.56-20.07,0.8c-6.38,2.3-12.93,4.7-18.05,9.5
	c-5.12,4.8-8.52,12.64-6.57,19.75c1.33,4.84,4.84,8.55,8.53,11.53c10.05,8.12,22.51,12.45,34.93,12.37
	C79.44,105.24,91.78,108.85,103.27,104.42z"/>
</svg>
