<?xml version="1.0" encoding="utf-8"?>
<!-- Generator: Adobe Illustrator 27.3.1, SVG Export Plug-In . SVG Version: 6.00 Build 0)  -->
<svg version="1.1" id="Layer_1" xmlns="http://www.w3.org/2000/svg" xmlns:xlink="http://www.w3.org/1999/xlink" x="0px" y="0px"
	 viewBox="0 0 133.37 133.37" style="enable-background:new 0 0 133.37 133.37;" xml:space="preserve">
<style type="text/css">
	.st0{fill:#1E44D1;}
</style>
<path class="st0" d="M71.78,64.47c3.5-0.83,6.37-3.28,9.65-4.78c5.47-2.49,11.86-2.17,17.67-0.63c8.01,2.13,15.76,6.91,19.28,14.41
	c3.52,7.5,1.45,17.83-5.82,21.79c-5.92,3.22-13.28,1.64-19.56-0.81c-6.28-2.45-12.5-5.75-19.24-5.78
	c-12.14-0.06-23.04,10.49-35,8.43c-12.1-2.09-20.07-19.25-11.02-28.74c4.5-4.71,12.64-8.15,19.01-8.5
	C55.36,59.4,63.29,66.48,71.78,64.47z"/>
</svg>
