<?xml version="1.0" encoding="utf-8"?>
<!-- Generator: Adobe Illustrator 27.3.1, SVG Export Plug-In . SVG Version: 6.00 Build 0)  -->
<svg version="1.1" id="Layer_1" xmlns="http://www.w3.org/2000/svg" xmlns:xlink="http://www.w3.org/1999/xlink" x="0px" y="0px"
	 viewBox="0 0 133.37 133.37" style="enable-background:new 0 0 133.37 133.37;" xml:space="preserve">
<style type="text/css">
	.st0{fill:#FF7155;}
</style>
<path class="st0" d="M52.22,99.01c3.91-2.9,6.29-7.44,10-10.59c7.14-6.06,19.03-5.36,25.41,1.49c2.87,3.09,4.6,7.05,7,10.51
	c2.41,3.46,5.95,6.63,10.16,6.71c6.58,0.12,10.87-7.09,11.86-13.6c2.05-13.5-4.28-27.73-15.22-35.9
	c-10.94-8.17-25.93-10.27-38.96-6.21c-7.75,2.41-14.73,6.91-20.41,12.67c-4.18,4.24-10.74,9.06-13.3,14.51
	C21.9,93.2,38.74,109.01,52.22,99.01z"/>
</svg>
