<?xml version="1.0" encoding="utf-8"?>
<!-- Generator: Adobe Illustrator 27.3.1, SVG Export Plug-In . SVG Version: 6.00 Build 0)  -->
<svg version="1.1" id="Layer_1" xmlns="http://www.w3.org/2000/svg" xmlns:xlink="http://www.w3.org/1999/xlink" x="0px" y="0px"
	 viewBox="0 0 133.37 133.37" style="enable-background:new 0 0 133.37 133.37;" xml:space="preserve">
<style type="text/css">
	.st0{fill:#1E44D1;}
</style>
<path class="st0" d="M105.49,74.27c-0.06-11.05-3.22-23.76-13.22-28.44c-8.23-3.85-17.93-0.75-26.25,2.91
	c-0.07,0.03-0.14,0.06-0.2,0.09c-10.68,4.72-19.35,13.06-24.53,23.52c-0.66,1.34-1.3,2.69-1.85,4c-2.41,5.7-4.35,11.81-3.82,17.97
	c0.6,7.1,4.84,13.97,11.29,17.02s14.9,1.72,19.58-3.66c3.78-4.34,5.27-10.99,10.5-13.4c5.73-2.65,12.64,1.43,18.71-0.32
	c3.79-1.09,6.67-4.38,8.13-8.05C105.28,82.26,105.51,78.22,105.49,74.27z"/>
</svg>
