<?xml version="1.0" encoding="utf-8"?>
<!-- Generator: Adobe Illustrator 27.3.1, SVG Export Plug-In . SVG Version: 6.00 Build 0)  -->
<svg version="1.1" id="Layer_1" xmlns="http://www.w3.org/2000/svg" xmlns:xlink="http://www.w3.org/1999/xlink" x="0px" y="0px"
	 viewBox="0 0 133.37 133.37" style="enable-background:new 0 0 133.37 133.37;" xml:space="preserve">
<style type="text/css">
	.st0{fill:#FFC6BB;}
</style>
<path class="st0" d="M103.44,63.65c-0.28-6.43-1.24-13.14-5.06-18.32c-6.53-8.86-19.58-10.45-30.09-7.18
	C58.1,41.32,52.19,50.02,42.42,54c-3.6,1.47-7.44,2.25-11.03,3.73c-4.82,1.99-7.92,5.38-10.24,9.96
	c-2.49,4.93-2.76,11.14,0.06,15.89c2.6,4.37,7.5,7.05,12.53,7.81c5.03,0.77,10.18-0.19,15.02-1.77c5.06-1.65,10.21-4.02,15.47-3.2
	c4.65,0.73,8.51,3.83,12.46,6.38c3.95,2.55,8.78,4.7,13.25,3.24c1.89-0.61,3.54-1.83,4.96-3.22
	C102.39,85.54,103.89,74.09,103.44,63.65z"/>
</svg>
