<?xml version="1.0" encoding="utf-8"?>
<!-- Generator: Adobe Illustrator 27.3.1, SVG Export Plug-In . SVG Version: 6.00 Build 0)  -->
<svg version="1.1" id="Layer_1" xmlns="http://www.w3.org/2000/svg" xmlns:xlink="http://www.w3.org/1999/xlink" x="0px" y="0px"
	 viewBox="0 0 133.37 133.37" style="enable-background:new 0 0 133.37 133.37;" xml:space="preserve">
<style type="text/css">
	.st0{fill:#1E44D1;}
</style>
<path class="st0" d="M101.65,64.24c-0.11-4.64-0.54-9.66-3.57-13.18c-4.33-5.02-12.06-4.97-18.59-3.81
	c-1.27,0.22-2.64,0.46-3.79-0.14c-2.98-1.56-1.2-6.06-1.68-9.38c-0.42-2.91-2.94-5.17-5.71-6.16c-2.77-0.99-5.79-0.95-8.73-0.89
	c0,0-15.5-0.3-20.07,5.84c-4.57,6.14-3.67,15.69,1.96,20.87c0.61,0.56,1.29,1.11,1.55,1.89c0.64,1.88-1.37,3.5-2.97,4.69
	c-6.33,4.74-9.57,13.25-8.01,20.99c1.56,7.75,7.86,14.33,15.52,16.25c2.73,0.68,5.72,0.79,8.29-0.39
	c6.77-3.11,8.13-13.65,15.31-15.64c5.56-1.54,11.04,3.17,16.81,3.08c5.15-0.08,9.59-4.11,11.64-8.83
	C101.67,74.71,101.78,69.39,101.65,64.24z"/>
</svg>
