<?xml version="1.0" encoding="utf-8"?>
<!-- Generator: Adobe Illustrator 27.3.1, SVG Export Plug-In . SVG Version: 6.00 Build 0)  -->
<svg version="1.1" id="Layer_1" xmlns="http://www.w3.org/2000/svg" xmlns:xlink="http://www.w3.org/1999/xlink" x="0px" y="0px"
	 viewBox="0 0 133.37 133.37" style="enable-background:new 0 0 133.37 133.37;" xml:space="preserve">
<style type="text/css">
	.st0{fill:#1E44D1;}
</style>
<path class="st0" d="M49.48,43.21c-5.9,2.88-10.3,8.02-15.17,12.43c-5.08,4.6-10.91,8.62-14.55,14.43
	c-3.64,5.81-4.34,14.28,0.69,18.94c4.73,4.38,12.09,3.62,18.46,2.59c10.73-1.75,21.46-3.51,32.19-5.26
	c7.72-1.26,15.61-2.52,23.32-1.22c4.88,0.82,10.04,2.64,14.6,0.69c6.69-2.86,7.83-12.25,5.16-19.02
	c-4.29-10.9-15.35-16.61-26.01-19.66C75.68,43.55,62.27,36.98,49.48,43.21z"/>
</svg>
