<?xml version="1.0" encoding="utf-8"?>
<!-- Generator: Adobe Illustrator 27.3.1, SVG Export Plug-In . SVG Version: 6.00 Build 0)  -->
<svg version="1.1" id="Layer_1" xmlns="http://www.w3.org/2000/svg" xmlns:xlink="http://www.w3.org/1999/xlink" x="0px" y="0px"
	 viewBox="0 0 133.37 133.37" style="enable-background:new 0 0 133.37 133.37;" xml:space="preserve">
<style type="text/css">
	.st0{fill:#FFE3DD;}
</style>
<path class="st0" d="M31.54,50.71c-5.38,7.89-2.62,20.11,5.63,24.92c4.17,2.43,9.96,3.83,11.1,8.52c1.31,5.42-5.1,10.69-3.37,15.98
	c0.9,2.74,3.82,4.4,6.69,4.69c2.87,0.29,5.72-0.53,8.48-1.34c7.88-2.31,15.86-4.66,22.93-8.83c7.07-4.17,13.26-10.44,15.63-18.3
	c1.8-5.97,0.76-12.72-2.98-17.72c-3.88-5.19-3.58-8.81,2.38-11.93c5.43-2.84,10.09-9.05,4.13-14.21c-2.44-2.11-5.7-3-8.9-3.4
	c-14.8-1.85-21.83,6.36-33.36,12.99C50.55,47.46,39.1,39.63,31.54,50.71z"/>
</svg>
