<?xml version="1.0" encoding="utf-8"?>
<!-- Generator: Adobe Illustrator 27.3.1, SVG Export Plug-In . SVG Version: 6.00 Build 0)  -->
<svg version="1.1" id="Layer_1" xmlns="http://www.w3.org/2000/svg" xmlns:xlink="http://www.w3.org/1999/xlink" x="0px" y="0px"
	 viewBox="0 0 133.37 133.37" style="enable-background:new 0 0 133.37 133.37;" xml:space="preserve">
<style type="text/css">
	.st0{fill:#FF7155;}
</style>
<path class="st0" d="M88.96,54.69c-2.09-1.22-3.54-3.46-5.14-5.42c-4.9-5.98-12.08-9.75-19.23-9.04c-1.16,0.12-2.31,0.36-3.43,0.72
	c-7.97,2.58-16.3,3.05-24.57,2.63c-1.57-0.08-3.14,0.13-4.62,0.65c-6.88,2.45-9.76,8.28-9.76,8.28c-3.85,6.57-3.99,15.71-0.35,22.43
	c3.65,6.72,10.89,10.64,17.76,9.63c5.79-0.86,10.82-4.79,16.22-7.35c5.4-2.55,12.25-3.45,16.54,1.08c2.06,2.17,3.2,5.28,5.24,7.45
	c1.55,1.65,3.53,2.67,5.5,3.57c7.76,3.54,17.03,5.53,24.14,0.52c5.75-4.05,8.8-12.52,7.2-20c-1.6-7.49-7.72-13.41-14.45-13.99
	C96.29,55.53,92.28,56.64,88.96,54.69"/>
</svg>
