<?xml version="1.0" encoding="utf-8"?>
<!-- Generator: Adobe Illustrator 27.3.1, SVG Export Plug-In . SVG Version: 6.00 Build 0)  -->
<svg version="1.1" id="Layer_1" xmlns="http://www.w3.org/2000/svg" xmlns:xlink="http://www.w3.org/1999/xlink" x="0px" y="0px"
	 viewBox="0 0 133.37 133.37" style="enable-background:new 0 0 133.37 133.37;" xml:space="preserve">
<style type="text/css">
	.st0{fill:#FFC6BB;}
</style>
<path class="st0" d="M103.46,52.1c-1.8-0.76-3.81-0.85-5.76-0.9c-4.97-0.12-9.97-0.1-14.96,0.1c-3.74,0.16-7.39-1.15-10.28-3.52
	c-2.86-2.35-3.97-6.95-7.67-8.07c-2.48-0.75-6.13,0.54-8.65,0.89c-7.18,1-14.7,1.39-21.14,5.07c-6.83,3.91-11.55,10.52-12.28,18.44
	c-0.27,3,0.14,6.24,2.08,8.54c1.76,2.09,4.54,3.09,7.26,3.38c4.25,0.45,8.5-0.63,12.76-0.96c4.26-0.33,8.97,0.27,11.94,3.35
	c2.98,3.08,3.46,7.87,6.08,11.26c2.63,3.4,7.17,4.93,11.46,4.79c4.3-0.13,8.42-1.72,12.28-3.6c10.27-4.99,20.05-13.15,22.37-24.32
	C110.1,61.07,108.6,54.28,103.46,52.1z"/>
</svg>
