<?xml version="1.0" encoding="utf-8"?>
<!-- Generator: Adobe Illustrator 27.3.1, SVG Export Plug-In . SVG Version: 6.00 Build 0)  -->
<svg version="1.1" id="Layer_1" xmlns="http://www.w3.org/2000/svg" xmlns:xlink="http://www.w3.org/1999/xlink" x="0px" y="0px"
	 viewBox="0 0 133.37 133.37" style="enable-background:new 0 0 133.37 133.37;" xml:space="preserve">
<style type="text/css">
	.st0{fill:#FF7155;}
</style>
<g>
	<path class="st0" d="M92.46,58.74c-3.13-6.32-9.03-12.98-15.8-15.52c-6.56-2.46-14.34-1.1-20.73,1.26
		c-6.06,2.24-13.14,3.55-17.55,8.71c-2.45,2.86-3.73,6.52-4.92,10.1c-1.24,3.72-2.45,7.49-2.8,11.39
		c-0.66,7.46,2.05,15.16,7.25,20.55c5.2,5.4,12.78,8.4,20.27,8.02c4.59-0.23,9.05-1.67,13.24-3.57c7.81-3.54,15.01-8.93,19.36-16.32
		C95.13,75.97,96.27,66.42,92.46,58.74z"/>
</g>
</svg>
