<?xml version="1.0" encoding="utf-8"?>
<!-- Generator: Adobe Illustrator 27.3.1, SVG Export Plug-In . SVG Version: 6.00 Build 0)  -->
<svg version="1.1" id="Layer_1" xmlns="http://www.w3.org/2000/svg" xmlns:xlink="http://www.w3.org/1999/xlink" x="0px" y="0px"
	 viewBox="0 0 133.37 133.37" style="enable-background:new 0 0 133.37 133.37;" xml:space="preserve">
<style type="text/css">
	.st0{fill:#FFF4F1;}
</style>
<path class="st0" d="M99.79,60.79c-3-9.63-7.1-19.88-15.84-24.93c-6.39-3.69-14.46-3.89-21.41-1.39
	c-6.95,2.49-12.82,7.46-17.3,13.34c-2.57,3.37-4.74,7.12-6.05,11.13c-0.93,2.84-2.08,5.61-3.61,8.18
	c-4.11,6.92-7.04,14.54-4.52,21.9c0.67,1.96,1.76,3.84,3.4,5.1c3.62,2.78,8.91,1.9,12.95-0.21c4.04-2.12,7.5-5.29,11.69-7.1
	c4.19-1.81,9.73-1.86,12.65,1.65c1.57,1.87,2.09,4.4,3.3,6.51c3.46,6.06,12.38,7.43,18.41,3.93c6.03-3.5,9.26-10.62,9.75-17.59
	C103.72,74.35,101.86,67.45,99.79,60.79z"/>
</svg>
