<?xml version="1.0" encoding="utf-8"?>
<!-- Generator: Adobe Illustrator 27.3.1, SVG Export Plug-In . SVG Version: 6.00 Build 0)  -->
<svg version="1.1" id="Layer_1" xmlns="http://www.w3.org/2000/svg" xmlns:xlink="http://www.w3.org/1999/xlink" x="0px" y="0px"
	 viewBox="0 0 133.37 133.37" style="enable-background:new 0 0 133.37 133.37;" xml:space="preserve">
<style type="text/css">
	.st0{fill:#1E44D1;}
</style>
<path class="st0" d="M111.02,56.72c-2.04-3.19-5.87-4.8-9.6-5.4c-14.04-2.24-28.59,10.55-41.17-0.47c-2.1-1.84-3.87-4.17-6.4-5.38
	c-6.36-3.04-15.93,7.81-20.31,11.4c-6.88,5.64-13.12,13.03-13.12,22.39c-0.02,2.43,0.27,4.94,1.5,7.03c1.87,3.17,5.6,4.79,9.24,5.41
	c10.88,1.86,22.92-3.25,32.68,1.9c3.91,2.06,7.21,5.7,11.62,6.1c2.4,0.22,4.77-0.58,6.98-1.52c12-5.07,22.03-14.64,27.66-26.39
	C112.37,67.06,113.86,61.16,111.02,56.72z"/>
</svg>
