<?xml version="1.0" encoding="utf-8"?>
<!-- Generator: Adobe Illustrator 27.3.1, SVG Export Plug-In . SVG Version: 6.00 Build 0)  -->
<svg version="1.1" id="Layer_1" xmlns="http://www.w3.org/2000/svg" xmlns:xlink="http://www.w3.org/1999/xlink" x="0px" y="0px"
	 viewBox="0 0 133.37 133.37" style="enable-background:new 0 0 133.37 133.37;" xml:space="preserve">
<style type="text/css">
	.st0{fill:#FFC6BB;}
</style>
<path class="st0" d="M109.48,57.02c-4.04-6.89-11.57-13.19-19.28-11.11c-6.25,1.69-11.36,8.58-17.63,6.96
	c-5.55-1.44-7.18-7.95-11.22-11.3c-5.93-4.92-13.34-0.52-17.87,4.23c-3.63,3.81-6.83,8.32-11.59,10.56
	c-2.38,1.12-5.02,1.61-7.38,2.77C19.9,61.4,16.96,69.84,22.8,72.7c2.42,1.19,5.28,0.52,7.97,0.57c2.69,0.04,5.92,1.49,5.97,4.19
	c0.03,1.24-0.66,2.38-1.34,3.42c-2.97,4.53-6.54,9.52-5.47,14.83c1.48,7.35,11.66,10.06,18.21,6.41
	c7.46-4.16,11.59-13.91,19.99-15.45c9.22-1.7,16.97,7.63,26.29,8.66c8.46,0.94,16.54-5.7,19.05-13.83
	C115.99,73.36,113.78,64.36,109.48,57.02z"/>
</svg>
