<?xml version="1.0" encoding="utf-8"?>
<!-- Generator: Adobe Illustrator 27.3.1, SVG Export Plug-In . SVG Version: 6.00 Build 0)  -->
<svg version="1.1" id="Layer_1" xmlns="http://www.w3.org/2000/svg" xmlns:xlink="http://www.w3.org/1999/xlink" x="0px" y="0px"
	 viewBox="0 0 133.37 133.37" style="enable-background:new 0 0 133.37 133.37;" xml:space="preserve">
<style type="text/css">
	.st0{fill:#1E44D1;}
</style>
<path class="st0" d="M40.2,45.99c6-0.05,11.94,2.98,17.81,1.74c5.58-1.18,9.59-5.88,13.94-9.56c4.36-3.68,10.71-6.56,15.58-3.59
	c3.87,2.36,5.06,7.44,5.11,11.97c0.04,4.53-0.67,9.22,0.83,13.5c3.32,9.46,16.42,14.23,16.67,24.25c0.12,4.89-3.23,9.37-7.46,11.83
	c-4.23,2.46-9.22,3.23-14.1,3.63c-12.56,1.03-25.3-0.12-37.47-3.37c-7.34-1.96-14.72-4.84-20.09-10.21
	C19.72,74.86,18.69,46.16,40.2,45.99z"/>
</svg>
