<?xml version="1.0" encoding="utf-8"?>
<!-- Generator: Adobe Illustrator 27.3.1, SVG Export Plug-In . SVG Version: 6.00 Build 0)  -->
<svg version="1.1" id="Layer_1" xmlns="http://www.w3.org/2000/svg" xmlns:xlink="http://www.w3.org/1999/xlink" x="0px" y="0px"
	 viewBox="0 0 133.37 133.37" style="enable-background:new 0 0 133.37 133.37;" xml:space="preserve">
<style type="text/css">
	.st0{fill:#1A2B5B;}
</style>
<path class="st0" d="M104.82,39.74c-3.34-7.06-9.62-11.8-18.01-12.73c-7.64-0.84-14.18,1.77-21.52,3.04
	c-5.72,0.98-11.79,1.2-17.6,2.05c-7.65,1.11-15.82,2.57-20.39,9.56c-2.5,3.83-3.27,8.87-1.54,13.1c1.72,4.18,5.61,7.15,9.83,8.77
	c6.38,2.46,15.11,0.71,18.45,8.16c1.35,3.01,0.85,6.48,0.95,9.78c0.37,11.73,9.71,22.57,21.26,24.67
	c11.55,2.1,24.11-4.75,28.59-15.59c1.93-4.66,2.45-9.78,2.68-14.81c0.44-9.83,1.42-20.88-0.81-30.52
	C106.25,43.26,105.62,41.43,104.82,39.74z"/>
</svg>
