<?xml version="1.0" encoding="utf-8"?>
<!-- Generator: Adobe Illustrator 27.3.1, SVG Export Plug-In . SVG Version: 6.00 Build 0)  -->
<svg version="1.1" id="Layer_1" xmlns="http://www.w3.org/2000/svg" xmlns:xlink="http://www.w3.org/1999/xlink" x="0px" y="0px"
	 viewBox="0 0 133.37 133.37" style="enable-background:new 0 0 133.37 133.37;" xml:space="preserve">
<style type="text/css">
	.st0{fill:#1A2B5B;}
</style>
<path class="st0" d="M116.1,60.15c-1.9-7.18-6.27-14.36-13.31-16.74c-6.55-2.21-13.25,0.29-19.15,3.17
	c-4.37,2.14-11.85,8.63-16.85,5.79c-2.27-1.29-3.79-3.55-5.46-5.56c-7.22-8.69-25.69-18.04-36.69-10.96
	c-6.19,3.98-9.87,11.78-8.41,18.99c1.46,7.21,8.32,13.12,15.67,12.92c3.89-0.1,7.59-1.74,11.47-2.09c3.88-0.35,8.49,1.22,9.52,4.97
	c0.56,2.05-0.1,4.21-0.59,6.28c-1.68,7.06-1.16,15.13,3.48,20.7s14.18,7.16,19.18,1.9c3.75-3.95,3.88-9.96,5-15.3
	s4.82-11.29,10.25-10.85c5.08,0.41,8.08,6.19,12.93,7.78c4.8,1.57,10.2-1.66,12.41-6.2C117.77,70.42,117.39,65.03,116.1,60.15z"/>
</svg>
