<?xml version="1.0" encoding="utf-8"?>
<!-- Generator: Adobe Illustrator 27.3.1, SVG Export Plug-In . SVG Version: 6.00 Build 0)  -->
<svg version="1.1" id="Layer_1" xmlns="http://www.w3.org/2000/svg" xmlns:xlink="http://www.w3.org/1999/xlink" x="0px" y="0px"
	 viewBox="0 0 133.37 133.37" style="enable-background:new 0 0 133.37 133.37;" xml:space="preserve">
<style type="text/css">
	.st0{fill:#1A2B5B;}
</style>
<path class="st0" d="M105.62,73.63c-0.01-0.11-0.03-0.23-0.04-0.34c-0.75-5.64-5.97-9.38-9.64-13.2
	c-7.84-8.15-16.45-15.57-25.67-22.11c-4.39-3.11-7.78-5.89-13.4-6.13c-5.05-0.22-10.2,1.23-14.7,3.47
	c-5.12,2.55-9.86,6.25-12.62,11.27c-2.76,5.02-3.26,11.49-0.34,16.41c3.65,6.17,12.17,9.82,12.39,16.98
	c0.09,2.84-1.27,5.59-1.13,8.43c0.25,5.21,5.32,8.85,10.25,10.56c8.5,2.96,18.13,2.56,26.35-1.11c3.87-1.72,8.24-4.17,12.03-2.28
	c2.52,1.26,3.41,2.5,6.18,1.06c2.24-1.16,3.96-3.39,5.17-5.55C103.23,86.09,106.26,79.55,105.62,73.63z"/>
</svg>
