<?xml version="1.0" encoding="utf-8"?>
<!-- Generator: Adobe Illustrator 27.3.1, SVG Export Plug-In . SVG Version: 6.00 Build 0)  -->
<svg version="1.1" id="Layer_1" xmlns="http://www.w3.org/2000/svg" xmlns:xlink="http://www.w3.org/1999/xlink" x="0px" y="0px"
	 viewBox="0 0 133.37 133.37" style="enable-background:new 0 0 133.37 133.37;" xml:space="preserve">
<style type="text/css">
	.st0{fill:#FF7155;}
</style>
<path class="st0" d="M109.71,60.72c-4.49-4.63-11.45-6.39-17.82-5.35c-4,0.65-8.16,2.29-11.95,0.87c-5.27-1.97-6.81-8.48-8.21-13.93
	c-1.59-6.14-5.9-13.43-12.82-10.76c-1.7,0.65-3.15,1.82-4.26,3.26c-1.89,2.47-3.78,4.93-5.67,7.4
	c-4.94,6.45-11.92,10.91-19.71,13.19c-1.51,0.44-2.94,1.16-4.16,2.13c-4.34,3.45-6.34,9.1-7.04,14.6c-1.17,9.22,1.61,19.91,9.8,24.3
	c2.39,1.28,5.33,1.93,7.83,0.88c2.84-1.19,4.42-4.17,6.58-6.37c5.72-5.85,16.58-5.31,21.7,1.07c2.41,3,3.62,6.94,6.53,9.45
	c3.62,3.12,9.11,3.2,13.56,1.46c4.45-1.74,8.1-5.01,11.65-8.21c3.73-3.37,7.46-6.73,11.19-10.1c2.03-1.84,4.1-3.71,5.48-6.09
	C115.64,72.96,114.19,65.35,109.71,60.72z"/>
</svg>
