<?xml version="1.0" encoding="utf-8"?>
<!-- Generator: Adobe Illustrator 27.3.1, SVG Export Plug-In . SVG Version: 6.00 Build 0)  -->
<svg version="1.1" id="Layer_1" xmlns="http://www.w3.org/2000/svg" xmlns:xlink="http://www.w3.org/1999/xlink" x="0px" y="0px"
	 viewBox="0 0 133.37 133.37" style="enable-background:new 0 0 133.37 133.37;" xml:space="preserve">
<style type="text/css">
	.st0{fill:#1A2B5B;}
</style>
<path class="st0" d="M35.08,40.55c-7.58,2.91-14.38,9.21-16.81,17.61c-2.44,8.41,0.38,18.76,7.4,23.05
	c10.7,6.55,25.57-2.41,35.82,4.97c2.97,2.14,5.15,5.45,8.23,7.41c6.02,3.84,13.61,1.56,20.23-0.8c6.43-2.3,13.03-4.7,18.19-9.5
	c5.16-4.8,8.58-12.64,6.62-19.75c-1.34-4.84-4.88-8.55-8.59-11.53c-10.12-8.12-22.69-12.45-35.2-12.37
	C59.1,39.73,46.66,36.11,35.08,40.55z"/>
</svg>
