<?xml version="1.0" encoding="utf-8"?>
<!-- Generator: Adobe Illustrator 27.3.1, SVG Export Plug-In . SVG Version: 6.00 Build 0)  -->
<svg version="1.1" id="Layer_1" xmlns="http://www.w3.org/2000/svg" xmlns:xlink="http://www.w3.org/1999/xlink" x="0px" y="0px"
	 viewBox="0 0 133.37 133.37" style="enable-background:new 0 0 133.37 133.37;" xml:space="preserve">
<style type="text/css">
	.st0{fill:#FF7155;}
</style>
<path class="st0" d="M96.26,63.87c-2.07-2.41-4.29-4.71-6.55-6.94c-4.42-4.36-9.1-10.14-14.75-12.88c-0.78-0.38-1.48-0.69-2.37-0.65
	c-4.43,0.18-7.69,4.6-10.19,7.75c-3.11,3.92-6.85,7.26-10.14,11.06c-4.41,5.09-8.33,10.61-11.69,16.45
	c-3.42,5.94-6.97,12.48-6.88,19.54c0.07,5.25,2.73,10.75,7.55,12.83c4.59,1.98,9.93,0.5,14.42-1.7s8.73-5.11,13.62-6.14
	c10.23-2.16,20.7,4.35,31.01,2.66c2.46-0.4,4.96-1.36,6.55-3.28c1.04-1.26,1.62-2.85,2-4.44c2.23-9.25-1.66-17.9-6.36-25.77
	C100.66,69.35,98.55,66.54,96.26,63.87z"/>
</svg>
