<?xml version="1.0" encoding="utf-8"?>
<!-- Generator: Adobe Illustrator 27.3.1, SVG Export Plug-In . SVG Version: 6.00 Build 0)  -->
<svg version="1.1" id="Layer_1" xmlns="http://www.w3.org/2000/svg" xmlns:xlink="http://www.w3.org/1999/xlink" x="0px" y="0px"
	 viewBox="0 0 133.37 133.37" style="enable-background:new 0 0 133.37 133.37;" xml:space="preserve">
<style type="text/css">
	.st0{fill:#FFE3DD;}
</style>
<path class="st0" d="M37.52,50.98c-0.26,3.16,0.19,6.34,0.83,9.44c1.38,6.72,3.64,13.25,6.7,19.38c0,0,2.48,8.13,5.76,11.99
	c4.43,5.2,11.13,7.85,17.73,9.6c4.46,1.18,9.12,2.04,13.69,1.35c4.57-0.69,9.07-3.16,11.21-7.25c1.92-3.66,1.74-8.02,1.34-12.13
	c-0.92-9.36-2.8-18.62-5.6-27.6c-1.52-4.87-3.33-9.72-6.29-13.87c-5.81-8.17-16.32-12.98-26.2-11.26
	C46.82,32.37,38.34,40.99,37.52,50.98z"/>
</svg>
